<svg xmlns="http://www.w3.org/2000/svg" width="62.378" height="61.482" fill="#06c"><path d="M31.2 0A30.96 30.96 0 0 0 0 30.761c.02 16.705 14.22 30.7 31.17 30.72a30.96 30.96 0 0 0 31.21-30.761C62.358 14.015 48.158.02 31.2 0zM10.7 10.9C21.638.002 39.185-.434 50.64 9.91a27.95 27.95 0 0 1 9.275 20.831 28.39 28.39 0 0 1-.759 6.492l-10.792-14.42c-.303-.402-.8-.623-1.293-.587s-.963.325-1.21.77l-12.742 23.52L15.82 26.9c-.314-.345-.766-.53-1.23-.506a1.51 1.51 0 0 0-1.149.688L4.453 41.156A28.03 28.03 0 0 1 10.711 10.9zm40.8 39.863c-11.072 10.854-28.72 11.085-40.074.526a28.5 28.5 0 0 1-5.479-7l8.926-14 17.4 19.72c.286.323.698.507 1.13.506h.164a1.53 1.53 0 0 0 1.149-.769l12.66-23.34L58.1 40.732c-1.458 3.774-3.705 7.194-6.6 10.03z"/><circle cx="27.262" cy="20.7" r="14.7"/></svg>