<?xml version="1.0" standalone="no"?>
<!DOCTYPE svg PUBLIC "-//W3C//DTD SVG 20010904//EN"
 "http://www.w3.org/TR/2001/REC-SVG-20010904/DTD/svg10.dtd">
<svg version="1.0" xmlns="http://www.w3.org/2000/svg"
 width="992.000000pt" height="992.000000pt" viewBox="0 0 992.000000 992.000000"
 preserveAspectRatio="xMidYMid meet">
<metadata>
Created by potrace 1.11, written by Peter Selinger 2001-2013
</metadata>
<g transform="translate(0.000000,992.000000) scale(0.100000,-0.100000)"
fill="#000000" stroke="none">
<path d="M4659 9846 c-2 -2 -47 -7 -99 -10 -108 -8 -129 -10 -220 -21 -36 -5
-78 -9 -95 -11 -16 -1 -30 -3 -30 -4 0 -3 -20 -6 -85 -14 -25 -2 -45 -5 -45
-6 0 -2 -15 -5 -60 -13 -62 -12 -91 -18 -120 -24 -16 -4 -34 -7 -40 -8 -5 -1
-12 -3 -15 -4 -3 -2 -14 -4 -25 -6 -39 -7 -80 -16 -95 -21 -8 -3 -26 -8 -40
-11 -14 -3 -29 -6 -35 -7 -30 -8 -145 -43 -255 -79 -69 -23 -127 -42 -130 -42
-3 -1 -18 -7 -33 -13 -16 -7 -30 -12 -32 -12 -2 0 -16 -5 -32 -12 -15 -6 -33
-12 -39 -13 -6 -2 -27 -10 -45 -18 -19 -9 -68 -30 -109 -47 -41 -18 -129 -58
-195 -90 -66 -32 -124 -59 -130 -60 -5 -1 -21 -10 -35 -19 -14 -10 -63 -39
-110 -65 -137 -76 -175 -98 -182 -110 -4 -6 -8 -7 -8 -3 0 4 -6 3 -12 -3 -7
-6 -65 -45 -128 -87 -111 -74 -213 -146 -236 -167 -6 -6 -22 -18 -34 -26 -12
-8 -28 -20 -34 -25 -6 -6 -36 -30 -66 -55 -30 -25 -60 -49 -66 -55 -7 -5 -36
-30 -65 -55 -72 -60 -392 -380 -454 -454 -28 -32 -63 -72 -78 -90 -65 -72
-367 -485 -367 -501 0 -2 -17 -30 -38 -62 -21 -32 -42 -65 -45 -73 -4 -8 -16
-28 -26 -45 -21 -32 -61 -105 -108 -195 -15 -30 -32 -58 -36 -61 -5 -3 -8 -8
-7 -10 1 -2 -18 -47 -43 -99 -79 -166 -205 -479 -233 -580 -2 -8 -20 -69 -40
-135 -19 -66 -37 -127 -39 -135 -10 -35 -27 -107 -31 -125 -2 -11 -6 -30 -8
-43 -3 -12 -8 -26 -11 -32 -3 -5 -8 -24 -9 -42 -2 -18 -7 -44 -10 -58 -3 -14
-8 -38 -11 -55 -3 -16 -8 -39 -10 -50 -2 -11 -6 -38 -9 -60 -4 -22 -8 -51 -11
-65 -6 -36 -13 -86 -20 -155 -4 -33 -8 -71 -11 -85 -25 -158 -25 -735 1 -940
2 -19 6 -55 10 -80 13 -105 16 -129 31 -210 8 -47 17 -98 19 -115 3 -16 7 -41
10 -55 12 -53 17 -76 18 -92 1 -10 4 -18 7 -18 3 0 6 -8 7 -18 5 -65 131 -487
165 -555 5 -10 11 -26 13 -35 7 -33 30 -87 40 -94 6 -4 6 -8 1 -8 -5 0 -2 -7
5 -17 8 -9 13 -19 13 -22 -2 -8 10 -37 58 -139 21 -46 38 -90 38 -98 0 -8 4
-14 9 -14 9 0 35 -58 32 -72 0 -5 4 -8 10 -8 5 0 8 -4 5 -9 -4 -5 -3 -11 1
-13 5 -1 25 -37 47 -78 51 -99 119 -214 128 -218 5 -2 8 -9 8 -16 0 -15 208
-329 221 -334 5 -2 9 -9 9 -15 0 -7 14 -26 30 -44 17 -18 30 -37 30 -42 0 -6
5 -11 10 -11 6 0 10 -7 10 -15 0 -8 4 -15 8 -15 5 0 23 -19 40 -43 17 -23 42
-55 57 -72 14 -16 45 -52 68 -80 130 -153 427 -450 539 -540 21 -17 59 -49 85
-72 27 -24 51 -43 54 -43 3 0 17 -10 31 -22 47 -43 68 -58 78 -58 6 0 10 -4
10 -9 0 -5 15 -18 32 -30 28 -17 209 -142 244 -168 15 -12 45 -30 84 -53 19
-11 51 -30 71 -43 86 -53 257 -147 267 -147 7 0 12 -5 12 -11 0 -5 5 -7 10 -4
6 3 10 1 10 -4 0 -6 9 -11 20 -11 11 0 20 -4 20 -8 0 -5 26 -19 58 -32 31 -13
60 -28 64 -34 4 -6 8 -7 8 -2 0 5 6 4 13 -2 13 -10 197 -92 217 -96 5 -1 159
-61 195 -76 20 -9 212 -72 230 -76 6 -2 57 -17 115 -33 58 -17 111 -29 118
-26 8 3 10 0 6 -7 -5 -7 -2 -9 8 -5 9 3 19 3 22 -1 4 -3 14 -7 24 -9 77 -14
177 -36 192 -41 8 -3 24 -6 35 -7 61 -8 108 -16 114 -19 3 -2 29 -7 56 -10 28
-3 60 -8 72 -10 12 -3 48 -7 80 -10 32 -4 78 -9 103 -11 25 -3 70 -8 100 -11
30 -3 195 -7 365 -7 267 -2 384 2 530 17 17 2 61 6 98 10 37 4 78 9 90 12 12
2 42 7 67 10 25 3 52 7 60 9 8 2 38 7 65 11 28 3 53 8 56 10 4 2 24 6 44 10
51 8 74 12 93 18 9 3 28 7 42 10 14 2 45 9 70 16 25 7 50 13 55 14 6 1 16 5
23 9 6 5 12 6 12 4 0 -9 263 70 428 128 7 2 13 5 15 5 1 0 63 25 137 56 74 31
144 58 155 61 11 3 27 11 35 18 8 6 31 18 50 25 19 7 50 22 68 32 17 11 32 16
32 13 0 -4 6 -3 13 3 6 5 62 36 122 67 61 32 137 75 171 97 34 21 66 38 73 38
6 0 11 5 11 10 0 6 5 10 10 10 6 0 23 8 38 19 15 10 54 36 87 57 33 21 62 42
63 46 2 5 8 8 13 8 8 0 58 34 114 78 6 4 35 25 65 47 71 52 272 216 330 270
25 23 80 75 123 116 43 41 83 76 88 77 5 2 9 7 9 11 0 4 36 44 80 89 44 45 80
84 80 87 0 2 12 17 28 34 55 58 107 119 122 141 8 12 22 29 30 38 13 14 180
237 207 278 7 11 31 45 53 77 22 32 40 60 40 63 0 3 15 26 32 52 18 26 44 67
57 92 13 25 27 47 30 50 7 6 26 40 88 160 24 47 48 92 53 100 10 16 80 166
111 238 10 23 15 42 11 42 -4 0 -1 4 6 9 7 4 14 14 16 22 1 8 7 24 14 36 7 12
13 30 15 40 2 10 8 27 14 38 6 11 11 22 11 25 0 3 6 19 12 35 22 57 61 170 65
185 2 8 10 35 19 60 29 86 89 308 102 380 3 14 10 43 16 65 6 22 12 51 14 65
1 14 5 36 8 50 3 14 9 45 12 70 3 25 7 47 9 50 2 3 6 28 9 55 4 28 9 66 12 85
3 19 7 53 10 75 5 39 7 59 21 220 15 171 8 647 -13 815 -7 57 -11 91 -19 160
-4 30 -9 58 -11 62 -2 3 -7 30 -10 60 -7 64 -12 91 -15 98 -1 3 -3 10 -4 15
-1 9 -11 55 -31 145 -3 14 -7 38 -10 53 -3 15 -21 83 -41 150 -19 67 -38 136
-43 152 -11 43 -46 143 -95 275 -53 140 -70 181 -155 364 -21 48 -40 90 -40
94 -1 4 -5 12 -10 17 -5 6 -28 48 -53 95 -75 142 -244 422 -259 428 -4 2 -8 8
-8 13 0 6 -8 19 -18 30 -11 10 -25 32 -33 47 -8 15 -17 29 -20 32 -3 3 -47 59
-97 125 -49 66 -99 130 -111 142 -12 12 -21 27 -21 33 0 5 -4 10 -8 10 -4 0
-37 35 -72 77 -79 94 -356 373 -460 463 -73 64 -182 155 -208 175 -7 5 -21 17
-31 25 -10 8 -25 20 -33 25 -9 6 -40 28 -69 51 -30 22 -83 60 -119 85 -36 24
-67 46 -70 49 -37 41 -599 360 -600 342 0 -4 -7 2 -16 13 -8 11 -18 19 -22 17
-4 -1 -54 19 -112 44 -58 26 -118 52 -135 59 -42 19 -218 87 -230 90 -5 1 -18
5 -27 9 -9 4 -22 9 -30 10 -7 1 -65 19 -128 40 -106 35 -350 102 -410 112 -14
2 -47 9 -75 14 -27 6 -61 12 -75 15 -14 3 -36 7 -50 10 -73 15 -295 44 -390
51 -41 3 -82 8 -90 11 -16 6 -665 15 -671 9z m566 -391 c61 -3 124 -7 140 -9
17 -2 62 -7 100 -11 39 -4 79 -9 90 -10 11 -2 45 -6 75 -10 30 -3 61 -8 69
-11 8 -3 30 -7 50 -10 20 -3 79 -14 131 -24 52 -11 106 -21 120 -24 14 -2 32
-7 40 -10 8 -3 26 -8 40 -10 29 -6 73 -18 150 -40 30 -9 66 -19 79 -22 13 -3
32 -9 43 -15 10 -5 18 -7 18 -4 0 4 5 3 12 -1 6 -4 60 -24 118 -44 202 -71
553 -226 649 -289 13 -8 30 -16 37 -17 6 -1 25 -11 41 -21 15 -11 57 -37 93
-58 36 -22 89 -54 117 -72 29 -18 55 -33 58 -33 3 0 15 -9 28 -20 12 -12 39
-31 60 -43 20 -11 37 -24 37 -29 0 -4 6 -8 14 -8 8 0 16 -3 18 -7 2 -5 50 -44
108 -88 58 -43 110 -83 115 -87 117 -96 186 -159 350 -323 158 -158 205 -209
300 -325 89 -110 170 -220 252 -345 40 -60 76 -114 81 -120 20 -26 146 -254
207 -375 56 -113 160 -349 169 -385 2 -5 6 -17 9 -25 20 -46 75 -210 71 -210
-2 0 2 -13 11 -30 9 -16 13 -30 11 -30 -3 0 2 -16 10 -35 8 -19 11 -35 8 -35
-4 0 -2 -6 4 -12 5 -7 12 -26 15 -43 3 -16 10 -42 15 -56 6 -15 8 -29 6 -32
-3 -3 -1 -15 5 -26 6 -11 13 -33 16 -48 12 -73 24 -134 28 -140 3 -5 8 -33 12
-63 4 -30 8 -57 10 -60 2 -3 6 -29 10 -59 4 -30 8 -61 10 -70 1 -9 6 -43 10
-76 4 -33 9 -71 10 -85 19 -131 25 -596 11 -795 -4 -60 -9 -112 -11 -115 -1
-3 -6 -37 -9 -76 -4 -39 -9 -82 -11 -95 -3 -13 -8 -44 -11 -69 -3 -25 -12 -76
-20 -113 -8 -38 -12 -73 -9 -77 3 -5 1 -11 -5 -15 -6 -4 -8 -10 -5 -15 3 -5 1
-11 -4 -15 -6 -3 -8 -12 -5 -19 3 -8 0 -17 -5 -21 -6 -3 -9 -10 -6 -15 3 -4 1
-18 -3 -30 -7 -20 -12 -16 -50 39 -24 33 -48 66 -55 73 -7 7 -28 35 -47 63
-19 27 -41 56 -48 64 -7 7 -21 26 -30 40 -9 14 -22 33 -29 41 -7 8 -32 42 -57
75 -25 33 -49 65 -53 70 -5 6 -35 46 -67 90 -33 44 -63 82 -68 83 -4 2 -8 8
-8 14 0 5 -18 31 -40 57 -22 26 -40 53 -40 59 0 7 -4 12 -9 12 -4 0 -20 18
-35 40 -15 22 -33 48 -41 58 -8 9 -49 64 -92 122 -43 58 -86 114 -95 124 -10
11 -18 26 -18 33 0 7 -4 13 -9 13 -4 0 -21 19 -37 43 -16 23 -34 47 -40 52 -6
6 -22 26 -35 45 -13 19 -31 44 -41 54 -10 11 -18 26 -18 33 0 8 -4 11 -10 8
-5 -3 -10 -1 -10 5 0 6 -25 44 -55 83 -67 87 -66 86 -204 272 -62 83 -117 157
-124 165 -7 8 -37 49 -67 90 -55 76 -67 91 -85 113 -6 7 -34 45 -64 85 -92
126 -173 164 -291 139 -51 -11 -127 -73 -153 -126 -7 -14 -33 -62 -57 -106
-64 -116 -96 -175 -116 -215 -10 -19 -23 -38 -28 -42 -6 -4 -8 -8 -3 -8 4 0
-4 -18 -18 -40 -14 -22 -25 -44 -25 -49 0 -5 -6 -16 -12 -23 -7 -8 -26 -41
-43 -73 -16 -33 -33 -61 -37 -63 -5 -2 -8 -11 -8 -20 0 -8 -6 -23 -14 -31 -7
-9 -44 -74 -81 -146 -38 -71 -78 -146 -89 -165 -12 -19 -33 -57 -46 -85 -14
-27 -27 -52 -31 -55 -3 -3 -16 -27 -29 -55 -13 -27 -26 -52 -29 -55 -3 -3 -16
-25 -28 -50 -12 -25 -41 -79 -64 -120 -23 -41 -53 -97 -67 -125 -14 -27 -32
-58 -40 -67 -9 -10 -12 -18 -7 -18 4 0 3 -6 -3 -12 -10 -13 -141 -252 -177
-323 -11 -22 -22 -42 -25 -45 -3 -3 -14 -23 -26 -45 -11 -22 -34 -65 -51 -95
-17 -30 -52 -95 -78 -145 -27 -49 -53 -93 -59 -97 -6 -4 -7 -8 -3 -8 5 0 0
-15 -11 -32 -28 -46 -50 -86 -122 -223 -35 -66 -66 -124 -70 -130 -5 -5 -24
-41 -44 -80 -62 -118 -101 -189 -120 -218 -10 -15 -14 -27 -10 -27 5 0 2 -5
-6 -10 -8 -5 -15 -13 -15 -17 -1 -4 -6 -17 -12 -28 -6 -11 -32 -60 -58 -110
-27 -49 -58 -106 -71 -126 -13 -20 -20 -40 -17 -43 4 -3 1 -6 -6 -6 -7 0 -10
-4 -7 -9 4 -5 2 -11 -2 -13 -5 -1 -37 -57 -72 -123 -91 -173 -76 -164 -143
-87 -31 37 -71 83 -89 103 -38 42 -147 165 -198 223 -19 23 -39 46 -45 52 -11
12 -106 119 -180 204 -27 30 -54 60 -59 66 -6 6 -31 35 -56 64 -25 29 -52 61
-61 69 -8 9 -64 72 -125 141 -123 141 -158 181 -194 220 -14 15 -45 51 -70 80
-25 29 -50 58 -56 64 -15 16 -91 102 -148 169 -28 32 -61 70 -75 86 -14 15
-55 60 -91 101 -36 41 -85 96 -109 122 -24 26 -40 48 -36 48 4 0 39 -9 78 -21
70 -21 90 -26 137 -35 14 -2 31 -7 39 -9 7 -3 34 -8 60 -11 25 -3 57 -7 71
-10 34 -7 92 -13 172 -18 36 -2 71 -7 77 -11 6 -3 11 -3 11 2 0 4 62 8 138 9
75 0 162 4 192 8 30 3 62 7 70 7 13 1 55 8 140 24 27 5 57 12 93 21 12 3 29 7
37 9 8 2 15 4 15 5 0 1 7 3 15 5 62 15 170 50 215 71 30 13 55 21 55 18 0 -3
14 4 30 16 17 12 30 18 30 14 0 -5 5 -3 12 4 7 7 20 12 30 12 10 0 18 5 18 10
0 6 6 10 13 10 15 0 204 106 224 126 8 8 21 14 29 14 8 0 14 5 14 10 0 6 6 10
14 10 8 0 16 3 18 8 2 4 28 25 59 47 143 101 350 302 449 435 14 18 30 38 35
44 38 39 168 253 226 371 59 122 156 365 144 365 -2 0 3 16 11 35 8 20 12 40
9 45 -3 5 -1 11 4 14 4 3 12 25 16 48 4 24 9 48 11 53 1 6 5 27 9 49 4 21 8
48 11 60 2 11 6 46 9 76 3 30 7 71 10 90 7 43 7 364 0 405 -2 17 -7 54 -11 84
-3 30 -7 62 -9 70 -1 9 -6 36 -11 61 -8 47 -10 55 -14 68 -1 4 -2 11 -1 16 5
26 -124 410 -146 438 -6 7 -11 17 -11 21 -1 9 -74 160 -82 167 -3 3 -11 16
-18 30 -38 77 -167 262 -229 329 -23 26 -43 49 -43 53 0 17 -235 238 -325 306
-106 80 -151 110 -157 106 -5 -3 -8 -1 -8 3 0 20 -323 191 -392 208 -16 4 -28
11 -28 17 0 5 -4 7 -8 4 -5 -3 -20 1 -35 9 -15 8 -27 12 -27 10 0 -2 -26 6
-57 17 -60 21 -142 44 -187 52 -14 3 -29 7 -33 9 -5 3 -24 7 -43 10 -82 13
-136 20 -157 21 -13 0 -23 2 -23 6 0 12 -350 17 -475 6 -86 -7 -131 -12 -170
-20 -16 -3 -48 -8 -70 -12 -22 -3 -44 -8 -48 -11 -4 -2 -22 -6 -40 -9 -18 -2
-70 -15 -117 -29 -47 -14 -89 -27 -95 -28 -36 -9 -211 -82 -217 -91 -4 -6 -8
-7 -8 -3 0 20 -372 -195 -392 -227 -4 -6 -8 -7 -8 -1 0 7 -3 7 -8 0 -4 -6 -41
-37 -82 -70 -125 -99 -203 -174 -295 -280 -27 -32 -55 -63 -60 -69 -16 -16
-135 -176 -135 -180 0 -2 -27 -47 -60 -99 -33 -53 -60 -103 -60 -111 0 -9 -4
-16 -8 -16 -7 0 -51 -87 -67 -130 -1 -3 -7 -18 -14 -35 -35 -82 -65 -170 -93
-270 -17 -60 -36 -129 -43 -152 -7 -25 -8 -40 -2 -36 6 3 7 1 3 -5 -14 -23
-32 -144 -41 -272 -2 -30 -4 -57 -5 -60 -6 -15 -4 -47 3 -62 4 -10 4 -18 0
-18 -7 0 -9 -124 -3 -132 1 -2 3 -32 5 -68 2 -36 6 -85 9 -110 4 -25 9 -65 12
-90 3 -25 8 -48 10 -51 1 -3 6 -28 10 -55 3 -27 9 -51 13 -54 3 -3 7 -14 8
-25 1 -22 3 -28 32 -130 11 -38 26 -86 34 -105 8 -19 18 -44 22 -55 5 -11 9
-22 10 -25 9 -26 18 -48 25 -62 7 -12 3 -23 -14 -40 -27 -27 -77 -103 -366
-558 -117 -184 -219 -343 -228 -352 -8 -10 -11 -18 -7 -18 5 0 0 -7 -11 -15
-10 -8 -14 -15 -9 -15 6 0 6 -3 0 -8 -11 -7 -155 -229 -155 -238 0 -3 -5 -10
-11 -17 -5 -7 -29 -41 -51 -77 -23 -36 -54 -84 -70 -108 -15 -24 -28 -47 -28
-52 0 -4 -4 -10 -8 -12 -6 -2 -141 -209 -187 -286 -13 -22 -54 -86 -121 -189
-30 -46 -54 -87 -54 -93 0 -5 -4 -10 -9 -10 -5 0 -14 -13 -21 -30 -7 -16 -16
-30 -21 -30 -5 0 -9 -5 -9 -10 0 -6 -23 -45 -51 -87 l-51 -76 -30 79 c-43 112
-53 142 -73 204 -9 30 -19 62 -22 70 -8 19 -11 31 -15 55 -2 11 -7 25 -10 31
-4 6 -10 24 -12 40 -3 16 -10 44 -15 62 -5 17 -7 32 -4 32 3 0 1 6 -4 13 -6 6
-16 41 -23 77 -6 36 -14 74 -16 85 -10 45 -33 173 -39 210 -3 22 -7 51 -9 65
-4 27 -15 106 -21 155 -20 159 -27 670 -12 822 14 134 16 156 21 192 3 20 8
56 11 81 3 25 10 71 16 103 6 32 12 70 14 85 2 15 7 38 10 52 3 14 7 36 10 50
9 45 13 63 50 205 40 156 40 154 48 175 3 8 17 51 30 95 41 127 78 229 88 239
5 6 9 16 9 24 0 7 12 39 27 70 14 31 27 62 29 68 10 54 251 503 328 613 20 28
36 53 36 56 0 5 80 119 100 142 5 7 10 16 10 22 0 5 3 11 8 13 4 2 20 21 37
43 16 22 33 45 37 50 9 12 118 145 133 162 5 6 33 38 60 70 62 72 395 405 395
395 1 -4 8 2 18 13 9 11 62 56 117 100 55 44 102 82 105 85 3 3 21 17 40 30
19 14 44 32 54 42 11 10 26 18 33 18 7 0 13 3 13 8 0 4 18 18 40 32 22 14 40
28 40 32 0 5 7 8 15 8 8 0 15 5 15 10 0 6 4 10 10 10 5 0 47 25 94 55 46 30
87 55 91 55 3 0 22 12 41 26 19 15 34 22 34 18 0 -5 4 -4 8 2 8 13 16 17 213
116 168 83 247 120 324 149 28 11 59 23 70 28 65 28 329 119 360 124 11 2 52
13 90 24 39 12 84 24 100 28 17 4 39 9 50 12 11 3 29 6 40 8 11 2 20 4 20 5 0
1 7 3 15 5 8 1 40 8 70 14 66 13 207 37 270 46 25 3 52 8 60 10 13 3 75 10
190 20 19 2 91 7 160 10 69 4 126 8 127 8 3 4 283 -2 388 -8z m2332 -3837 c13
-12 23 -26 23 -31 0 -5 6 -15 14 -21 7 -6 60 -74 117 -151 56 -77 107 -144
111 -150 5 -5 32 -41 60 -80 29 -38 55 -71 60 -73 4 -2 8 -8 8 -13 0 -8 42
-65 204 -276 31 -40 56 -77 56 -82 0 -5 4 -11 8 -13 4 -1 55 -66 112 -143 58
-77 107 -142 110 -145 3 -3 22 -27 41 -55 18 -27 42 -58 51 -69 10 -11 30 -38
45 -60 16 -23 36 -50 45 -60 10 -11 30 -38 45 -60 16 -23 38 -52 51 -66 12
-14 22 -28 22 -32 0 -3 6 -13 13 -20 7 -7 34 -42 60 -78 58 -78 81 -108 102
-135 9 -11 33 -45 55 -75 22 -30 46 -62 53 -70 7 -8 28 -35 46 -60 18 -25 64
-87 102 -138 56 -75 67 -97 59 -111 -5 -10 -6 -21 -3 -25 3 -3 1 -6 -5 -6 -7
0 -11 -3 -10 -7 1 -9 -5 -26 -38 -101 -13 -29 -24 -55 -24 -58 0 -7 -122 -251
-162 -324 -56 -101 -131 -224 -205 -335 -97 -146 -107 -159 -115 -163 -5 -2
-8 -9 -8 -16 0 -6 -9 -18 -20 -26 -11 -8 -20 -20 -20 -27 0 -6 -6 -16 -13 -20
-7 -4 -20 -19 -29 -33 -8 -14 -24 -35 -34 -46 -11 -12 -50 -59 -89 -105 -84
-100 -366 -385 -450 -454 -33 -28 -64 -55 -70 -61 -31 -33 -281 -224 -294
-224 -5 0 -11 -4 -13 -9 -8 -21 -402 -271 -428 -271 -5 0 -10 -4 -10 -10 0 -5
-4 -10 -9 -10 -5 0 -59 -27 -120 -59 -61 -32 -111 -57 -111 -55 0 2 -31 -12
-69 -31 -38 -19 -71 -35 -74 -35 -2 0 -26 -10 -53 -22 -27 -11 -51 -21 -54
-21 -3 0 -28 -11 -56 -23 -53 -23 -336 -121 -376 -130 -28 -6 -38 -9 -58 -17
-24 -9 -102 -28 -140 -34 -19 -3 -38 -10 -41 -15 -4 -6 -12 -7 -18 -4 -6 4
-17 4 -23 -1 -7 -4 -22 -9 -33 -10 -11 -2 -54 -10 -95 -18 -121 -23 -161 -30
-260 -44 -68 -10 -145 -19 -225 -27 -175 -17 -506 -22 -690 -10 -184 13 -213
16 -364 37 -41 6 -86 12 -100 14 -21 3 -133 25 -301 59 -14 3 -61 14 -105 26
-44 11 -87 23 -95 25 -46 11 -256 77 -269 85 -9 4 -18 8 -21 8 -9 1 -42 13
-200 75 -180 70 -483 221 -655 327 -108 66 -318 206 -352 234 -30 25 -41 33
-103 81 -92 70 -80 61 -180 145 -129 109 -493 484 -524 539 -5 9 -12 18 -15
21 -10 8 -64 74 -88 106 -12 16 -45 60 -72 97 -28 37 -51 72 -51 77 0 4 -4 10
-8 12 -25 9 -236 363 -229 382 3 8 43 72 89 143 46 71 88 137 93 146 14 22
187 294 250 392 56 87 135 211 220 345 30 47 61 94 70 105 8 10 15 25 15 32 0
7 4 13 8 13 5 0 15 12 23 27 8 15 40 67 71 115 32 48 58 92 58 98 0 5 5 10 10
10 6 0 10 4 10 10 0 9 99 163 122 190 7 8 11 15 9 15 -5 0 30 57 40 65 3 3 8
10 10 15 4 9 32 55 191 302 20 32 56 89 79 127 l43 68 45 -50 c25 -28 63 -70
83 -94 20 -24 52 -59 70 -79 18 -20 58 -65 88 -99 30 -35 62 -71 70 -80 8 -9
42 -48 75 -86 66 -75 130 -147 158 -179 11 -11 38 -42 60 -69 23 -26 56 -63
72 -81 17 -17 55 -61 85 -95 30 -35 69 -79 85 -97 17 -18 48 -54 70 -79 22
-26 51 -59 65 -74 14 -15 52 -58 85 -96 33 -38 76 -86 95 -108 44 -48 73 -81
130 -147 25 -28 56 -64 70 -79 14 -15 48 -54 75 -86 28 -32 73 -83 100 -114
28 -30 55 -60 60 -66 6 -6 35 -40 65 -74 91 -104 100 -115 100 -124 0 -5 3 -6
6 -3 4 3 19 -10 34 -31 15 -20 45 -55 66 -78 22 -23 62 -67 89 -98 28 -32 59
-68 70 -80 11 -12 47 -53 80 -91 33 -38 69 -78 80 -91 22 -24 110 -124 145
-164 43 -50 126 -144 153 -174 58 -64 94 -104 152 -171 131 -151 155 -168 256
-179 83 -9 199 62 229 139 8 19 17 35 22 35 4 0 8 6 8 13 0 7 11 29 25 50 14
20 24 37 21 37 -3 0 11 28 31 63 19 34 53 96 76 137 22 41 55 102 74 135 18
33 47 89 65 125 18 36 35 67 38 70 6 6 17 27 64 118 21 39 42 75 47 78 5 3 7
10 4 15 -4 5 -3 9 2 9 4 0 14 13 21 29 7 16 39 77 72 136 33 59 60 111 60 115
0 5 6 15 13 22 6 7 21 31 32 53 10 22 54 103 96 180 42 77 93 172 114 210 20
39 47 88 60 110 12 22 41 76 64 120 80 150 86 160 91 165 3 3 27 48 54 100 27
52 57 109 67 125 10 17 28 50 40 75 13 25 26 47 29 50 4 3 11 16 15 30 4 14
11 27 15 30 3 3 13 19 21 35 9 17 33 64 56 105 80 148 226 416 256 470 16 30
44 82 62 115 38 72 99 184 133 245 13 25 47 88 75 140 28 52 54 98 59 101 6 3
9 9 9 13 -5 32 5 34 36 4z"/>
</g>
</svg>
